# xmcd
#
# Track frame offsets:
#	150
#	7423
#	18963
#	33548
#	49285
#	68730
#	84768
#	98969
#	113011
#	125415
#
# Disc length: 1914 seconds
#
# Revision: 1
# Processed by: cddbd v1.5.1PL0 Copyright (c) Steve Scherf et al.
# Submitted via: audiograbber 1.81.03
#
DISCID=7c07780a
DTITLE=Cat Stevens - Teaser and the Firecat
DYEAR=1900
DGENRE=Rock
TTITLE0=The Wind
TTITLE1=Rubylove
TTITLE2=If I Laugh
TTITLE3=Changes IV
TTITLE4=How Can I Tell You
TTITLE5=Tuesday´s Dead
TTITLE6=Morning Has Broken
TTITLE7=Bitterblue
TTITLE8=Moonshadow
TTITLE9=Peace Train
EXTD=
EXTT0=
EXTT1=
EXTT2=
EXTT3=
EXTT4=
EXTT5=
EXTT6=
EXTT7=
EXTT8=
EXTT9=
PLAYORDER=
